<svg width="31" height="24" viewBox="0 0 31 24" fill="none" xmlns="http://www.w3.org/2000/svg">
<path d="M1.29282 13.9176C1.39268 14.0295 1.52336 14.0982 1.68588 14.1233C1.83533 14.1354 1.98512 14.0918 2.13456 13.992L15.079 3.19876L28.0232 13.992C28.123 14.0794 28.2537 14.1233 28.4162 14.1233H28.4722C28.6344 14.0982 28.7654 14.0295 28.8653 13.9176L30.0247 12.533C30.1249 12.4083 30.1684 12.2619 30.1557 12.0934C30.1436 11.9248 30.0749 11.7908 29.9506 11.6912L25.8538 8.28675V0.654763C25.8538 0.480182 25.7975 0.336429 25.6853 0.22451C25.5727 0.112255 25.4296 0.056295 25.255 0.056295H21.6635C21.489 0.056295 21.3455 0.112255 21.2333 0.22451C21.121 0.336429 21.0651 0.480182 21.0651 0.654763V4.3022L16.5008 0.486549C16.1017 0.162183 15.6279 0 15.079 0C14.5302 0 14.0564 0.162183 13.6573 0.486549L0.208139 11.6912C0.0831512 11.7908 0.0147931 11.9248 0.00205974 12.0934C-0.0103385 12.2616 0.0332229 12.408 0.133079 12.533L1.29282 13.9176Z" fill="#3A3A3A"/>
<path d="M18.2857 24.0001H24.6564C24.9808 24.0001 25.2612 23.8815 25.4981 23.6446C25.735 23.4074 25.854 23.1269 25.854 22.8025V14.0919C25.854 13.9441 25.7619 13.7468 25.6479 13.6519L15.286 5.0157C15.1714 4.9212 14.9864 4.9212 14.8721 5.0157C14.8721 5.0157 5.98659 12.3642 4.51823 13.5943C4.40463 13.6891 4.31249 13.8878 4.31182 14.0356C4.30679 15.5341 4.30444 22.8025 4.30444 22.8025C4.30444 23.1269 4.42306 23.4074 4.65964 23.6446C4.89655 23.8815 5.17701 24.0001 5.50138 24.0001H11.8721C12.0202 24.0001 12.1402 23.8802 12.1402 23.7317V18.9504C12.1402 17.4696 13.3408 16.269 14.8219 16.269H15.3356C16.8163 16.269 18.0169 17.4696 18.0169 18.9504V23.7317C18.0176 23.8799 18.1376 24.0001 18.2857 24.0001ZM15.0789 12.9305C14.0053 12.9305 13.1347 12.0599 13.1347 10.9863C13.1347 9.91235 14.0053 9.04212 15.0789 9.04212C16.1525 9.04212 17.0231 9.91235 17.0231 10.9863C17.0234 12.0603 16.1525 12.9305 15.0789 12.9305Z" fill="#3A3A3A"/>
</svg>
