<svg width="32" height="30" viewBox="0 0 32 30" fill="none" xmlns="http://www.w3.org/2000/svg">
<path d="M29.1007 0H2.32004C1.03933 0 0 0.96875 0 2.16167V27.8354C0 29.03 1.03933 30 2.32004 30H29.1007C30.3823 30 31.4286 29.03 31.4286 27.8354V2.16167C31.4286 0.96875 30.3823 0 29.1007 0ZM9.32119 25.5642H4.65754V11.2479H9.32119V25.5642ZM6.98936 9.29042C6.63439 9.29042 6.28289 9.22365 5.95496 9.09393C5.62702 8.96421 5.32908 8.77408 5.07816 8.53441C4.82723 8.29473 4.62824 8.01021 4.49256 7.6971C4.35687 7.38399 4.28715 7.04842 4.28738 6.70958C4.28738 6.0256 4.57203 5.36963 5.07871 4.88598C5.58539 4.40234 6.27259 4.13062 6.98915 4.13062C7.7057 4.13062 8.3929 4.40234 8.89958 4.88598C9.40626 5.36963 9.69091 6.0256 9.69091 6.70958C9.69091 7.3937 9.40636 8.04983 8.89978 8.53377C8.3932 9.01771 7.70606 9.28986 6.98936 9.29042ZM26.7798 25.5642H22.1235V18.6025C22.1235 16.9417 22.0895 14.8062 19.7005 14.8062C17.2744 14.8062 16.9046 16.615 16.9046 18.4821V25.5646H12.2449V11.2479H16.7169V13.2029H16.7807C17.4031 12.0779 18.9239 10.8908 21.192 10.8908C25.9089 10.8908 26.7802 13.855 26.7802 17.7113V25.5642H26.7798Z" fill="#0274B3"/>
</svg>
